<svg xmlns="http://www.w3.org/2000/svg" height="128.24" width="400" viewBox="0 0 400.0003 128.24406"><title>Caramuru Alimentos</title>
<g fill="#008837" transform="translate(3.140197e-4,-7.7212275e-6)">
<path d="m284.7,29.885h8.437v32.369c0,2.572,0.775,4.655,2.339,6.269,1.56,1.6,3.696,2.402,6.425,2.402,3.057,0,5.426-0.778,7.121-2.359,1.705-1.578,2.547-3.729,2.547-6.467v-32.214h8.44v32.864c0,4.918-1.641,8.76-4.917,11.54-3.279,2.78-7.655,4.175-13.128,4.175-5.515,0-9.768-1.358-12.768-4.076-2.993-2.717-4.496-6.607-4.496-11.674v-32.829z"/>
<path d="m364.69,29.885h8.44v32.369c0,2.572,0.775,4.655,2.339,6.269,1.56,1.6,3.7,2.402,6.424,2.402,3.057,0,5.427-0.778,7.121-2.359,1.706-1.578,2.548-3.729,2.548-6.467v-32.214h8.44v32.864c0,4.918-1.638,8.76-4.917,11.54s-7.655,4.175-13.125,4.175c-5.519,0-9.771-1.358-12.771-4.076-2.989-2.717-4.497-6.607-4.497-11.674v-32.829"/>
<path d="m257.43,78.877-9.584-26.698-5.133,26.072h-8.162l9.591-48.366h4.476l10.305,32.567,10.072-32.567h4.446l9.718,48.366h-8.186l-4.939-26.072-9.579,26.698h-3.025z"/>
<path d="m162.33,37.562v13.351c1.564,0.135,2.759,0.202,3.58,0.202,3.527,0,6.11-0.506,7.741-1.511,1.641-1.009,2.462-2.958,2.462-5.869,0-2.363-0.877-4.022-2.639-4.949-1.751-0.94-4.514-1.415-8.281-1.415-0.906-0.001-1.865,0.056-2.863,0.191m18.064,40.658-12.7-19.847c-1.273-0.024-3.06-0.103-5.367-0.237v20.08h-8.77v-48.07c0.478,0,2.306-0.078,5.497-0.248,3.184-0.169,5.745-0.247,7.698-0.247,12.084,0,18.13,4.727,18.13,14.179,0,2.844-0.846,5.434-2.508,7.775s-3.768,3.983-6.297,4.949l14.059,21.661h-9.743v0.005z"/>
<path d="M336.49,37.809v13.351c1.563,0.131,2.759,0.198,3.58,0.198,3.526,0,6.109-0.503,7.74-1.511,1.642-1.009,2.458-2.958,2.458-5.869,0-2.363-0.873-4.019-2.635-4.952-1.755-0.941-4.515-1.408-8.285-1.408-0.906,0-1.861,0.057-2.858,0.191m18.063,40.655-12.7-19.847c-1.273-0.021-3.06-0.099-5.366-0.233v20.076h-8.77v-48.073c0.474,0,2.307-0.077,5.497-0.244,3.184-0.17,5.745-0.247,7.698-0.247,12.084,0,18.13,4.729,18.13,14.179,0,2.844-0.845,5.431-2.508,7.772s-3.768,3.99-6.297,4.952l14.059,21.657h-9.743"/>
<path d="m130.6,44.545-5.628,17.695h11.243l-5.615-17.695m11.459,33.919-3.414-9.715h-16.04l-3.262,9.715h-9.226l18.66-48.579h3.64l18.81,48.579h-9.169"/>
<path d="m212,44.545-5.625,17.695h11.24l-5.615-17.695m11.459,33.919-3.414-9.715h-16.036l-3.262,9.715h-9.226l18.658-48.579h3.64l18.811,48.579h-9.171"/>
<path d="m108.92,25.491-4.083,8.179c-2.211-2.211-5.763-3.304-10.663-3.304-4.645,0-8.455,1.938-11.434,5.837-2.964,3.905-4.461,8.83-4.461,14.801,0,5.972,1.38,10.72,4.136,14.215,2.756,3.509,6.438,5.253,11.027,5.253,5.268,0,9.378-1.871,12.357-5.632l4.603,7.999c-4.033,4.291-9.962,6.438-17.752,6.438-7.804,0-13.864-2.562-18.176-7.698-4.314-5.126-6.472-12.12-6.472-20.992,0-8.261,2.392-15.155,7.192-20.706,4.783-5.55,10.91-8.324,18.375-8.324,6.393,0,11.522,1.303,15.357,3.927"/>
<path fill="#457f2b" d="m103.39,0.876c-1.635,0.209-6.492,0.17-8.13,0.475-30.264,5.617-60.822,27.097-66.603,54.273-1.242,5.838-1.348,12.442-0.191,18.294,8.979,45.434,102.2,67.218,151.18,25.403,6.729-5.745,6.658-5.738,0.378,0.58-43.55,43.839-142.03,33.779-171.55-9.318-8.986-13.11-11.459-31.116-4.373-45.713,10.886-22.429,45.416-44.142,90.571-44.868,1.794-0.031,6.998,0.301,8.71,0.874h-0.004z"/>
<path fill="#f7b713" d="M113.31,1.109c-31.786,4.086-67.668,24.488-73.763,53.136-1.242,5.837-1.352,12.445-0.191,18.296,9.332,47.229,104.45,62.069,151.53,13.345-35.31,58.134-150.48,49.234-175.24-3.021-4.44-9.375-6.269-20.911-3.58-31.035,7.411-27.917,46.173-53.706,101.24-50.717l0.006-0.004z"/>
</g>
</svg>